<svg xmlns="http://www.w3.org/2000/svg" viewBox="0 0 24 24">
<path d="M4.332 21.177c-.416 0-.61-.277-.684-.382-.143-.197-.246-.443-.34-.66-.035-.084-.07-.163-.102-.234-.95-2.13-1.43-3.847-1.43-5.11 0-1.542.193-2.748.61-3.798C3.657 7.84 6.915 6.31 12.35 6.31h1.98V3.982c0-.64.52-1.16 1.157-1.16.305 0 .596.122.816.343l5.578 5.577c.222.222.343.512.343.818 0 .307-.12.597-.342.817l-5.577 5.578c-.22.22-.512.342-.816.342-.64 0-1.158-.52-1.158-1.16v-2.326h-1.98c-4.746 0-7.316.9-7.316 5.64 0 .39.016.806.053 1.307.004.067.014.135.02.2.02.128.036.257.036.378 0 .48-.35.842-.81.842zM12.35 7.234c-5.014 0-7.992 1.34-9.104 4.1-.37.937-.545 2.034-.545 3.456 0 1.117.468 2.75 1.345 4.725.033.07.072.162.113.257l.002.006c-.033-.5-.05-.925-.05-1.327 0-6.054 4.253-6.562 8.24-6.562h2.9v3.25c0 .186.253.31.4.164l5.575-5.578c.047-.045.072-.104.072-.162 0-.06-.025-.118-.072-.164L15.647 3.82c-.143-.144-.398-.02-.398.164v3.25h-2.9z"/>
</svg>