<svg xmlns="http://www.w3.org/2000/svg" width="48" height="48" viewBox="0 0 24 24"><g fill="none" stroke="#00a6e2" stroke-linecap="round" stroke-linejoin="round" stroke-miterlimit="10"><path d="M7.5 10.5h8v13h-8z"/><path d="M.5 23.5h7v-13h2v-6h-9z"/><path d="M2.5 20.5h3v3h-3zM10.5 20.5h3v3h-3zM15.5 12.5h-3M9.5 8.5h-3M9.5 6.5h-5M15.5 14.5h-2"/><circle cx="18.502" cy="5.5" r="2"/><path d="M18.502.5v1M14.967 1.964l.707.707M13.502 5.5h1M14.966 9.035l.707-.708M18.5 10.5v-1M22.036 9.035l-.708-.706M23.5 5.5l-1 .002M22.036 1.966l-.706.708"/></g></svg>