<svg id="Layer_1" data-name="Layer 1" xmlns="http://www.w3.org/2000/svg" xmlns:xlink="http://www.w3.org/1999/xlink" viewBox="0 0 160 160"><defs><style>.cls-1,.cls-4,.cls-5{fill:none;}.cls-2{clip-path:url(#clip-path);}.cls-3{fill:#84bc3c;}.cls-4,.cls-5{stroke:#fff;stroke-linejoin:round;stroke-width:3px;}.cls-5{stroke-linecap:round;}</style><clipPath id="clip-path"><rect class="cls-1" width="160" height="160"/></clipPath></defs><title>Our Solutions_Manufactured</title><g class="cls-2"><path class="cls-3" d="M80,160A80,80,0,1,0,0,80a80,80,0,0,0,80,80"/></g><path class="cls-4" d="M91.68,112.33H78.88v-12h12.8Zm21.08,0H100v-12h12.8Z"/><path class="cls-5" d="M30.85,96.33l40-.16m-40,32.16h97.76"/><line class="cls-4" x1="38.85" y1="96.09" x2="38.85" y2="128.33"/><line class="cls-5" x1="64.85" y1="88.33" x2="128.61" y2="88.33"/><line class="cls-4" x1="120.61" y1="87.78" x2="120.61" y2="128.33"/><rect class="cls-5" x="49.01" y="108.33" width="11.68" height="20"/><line class="cls-4" x1="70.85" y1="89.27" x2="70.85" y2="128.33"/><path class="cls-4" d="M91.68,53.62H78.88v-12h12.8Zm21.08,0H100v-12h12.8Z"/><path class="cls-5" d="M30.85,37.62l40-.16m-40,32.16h97.76"/><line class="cls-4" x1="38.85" y1="37.38" x2="38.85" y2="69.62"/><line class="cls-5" x1="64.85" y1="29.62" x2="128.61" y2="29.62"/><line class="cls-4" x1="120.61" y1="29.07" x2="120.61" y2="69.62"/><rect class="cls-5" x="49.01" y="49.62" width="11.68" height="20"/><line class="cls-4" x1="70.85" y1="30.55" x2="70.85" y2="69.62"/></svg>