<svg id="Layer_1" data-name="Layer 1" xmlns="http://www.w3.org/2000/svg" viewBox="0 0 160 160"><defs><style>.cls-1,.cls-4{fill:none}.cls-2{clip-path:url(#clip-path)}.cls-3{fill:#84bc3c}.cls-4{stroke:#fff;stroke-linecap:round;stroke-linejoin:round;stroke-width:3px}</style><clipPath id="clip-path"><path class="cls-1" d="M0 0h160v160H0z"/></clipPath></defs><title>Our Solutions_Conventional</title><path class="cls-2 cls-3" d="M80 160A80 80 0 1 0 0 80a80 80 0 0 0 80 80"/><path class="cls-4" d="M105.84 34h-52l-8 8h68zm-40 28h-12V50h12zm40 0h-12V50h12zm-20 0h-12V50h12zm-20 20h-12V70h12zm40 0h-12V70h12zm-20 0h-12V70h12zm-20 20h-12V90h12zm40 0h-12V90h12zm-20 0h-12V90h12zm0 24h-12v-16h12zm28 0h-68V42h68z"/></svg>