<svg id="Layer_1" data-name="Layer 1" xmlns="http://www.w3.org/2000/svg" viewBox="0 0 160 160"><defs><style>.cls-1,.cls-4{fill:none}.cls-2{clip-path:url(#clip-path)}.cls-3{fill:#84bc3c}.cls-4{stroke:#fff;stroke-linecap:round;stroke-linejoin:round;stroke-width:3px}</style><clipPath id="clip-path"><path class="cls-1" d="M0 0h160v160H0z"/></clipPath></defs><title>Our Solutions_TAH</title><path class="cls-2 cls-3" d="M80 160A80 80 0 1 0 0 80a80 80 0 0 0 80 80"/><path class="cls-4" d="M104.61 112.94h-8v-8h8zm-36 0h-8v-8h8zm36-16h-8v-8h8zm-16 0h-12v-8h12zm-20 0h-8v-8h8zm36-16h-8v-8h8zm-16 0h-12v-8h12zm-20 0h-8v-8h8zm36-16h-8v-8h8zm-16 0h-12v-8h12zm-20 0h-8v-8h8zm20 60h-12v-20h12zm28-80l-34-12-34 12v4h68zm-4 80h-60v-76h60zm-76 0h92"/></svg>