<svg id="Layer_1" data-name="Layer 1" xmlns="http://www.w3.org/2000/svg" viewBox="0 0 160 160"><defs><style>.cls-1,.cls-4,.cls-5{fill:none}.cls-2{clip-path:url(#clip-path)}.cls-3{fill:#84bc3c}.cls-4,.cls-5{stroke:#fff;stroke-linejoin:round;stroke-width:3px}.cls-5{stroke-linecap:round}</style><clipPath id="clip-path"><path class="cls-1" d="M0 0h160v160H0z"/></clipPath></defs><title>Our Solutions_Manufactured</title><path class="cls-2 cls-3" d="M80 160A80 80 0 1 0 0 80a80 80 0 0 0 80 80"/><path class="cls-4" d="M91.68 112.33h-12.8v-12h12.8zm21.08 0H100v-12h12.8z"/><path class="cls-5" d="M30.85 96.33l40-.16m-40 32.16h97.76"/><path class="cls-4" d="M38.85 96.09v32.24"/><path class="cls-5" d="M64.85 88.33h63.76"/><path class="cls-4" d="M120.61 87.78v40.55"/><path class="cls-5" d="M49.01 108.33h11.68v20H49.01z"/><path class="cls-4" d="M70.85 89.27v39.06M91.68 53.62h-12.8v-12h12.8zm21.08 0H100v-12h12.8z"/><path class="cls-5" d="M30.85 37.62l40-.16m-40 32.16h97.76"/><path class="cls-4" d="M38.85 37.38v32.24"/><path class="cls-5" d="M64.85 29.62h63.76"/><path class="cls-4" d="M120.61 29.07v40.55"/><path class="cls-5" d="M49.01 49.62h11.68v20H49.01z"/><path class="cls-4" d="M70.85 30.55v39.07"/></svg>