<svg id="Layer_1" data-name="Layer 1" xmlns="http://www.w3.org/2000/svg" viewBox="0 0 160 160"><defs><style>.cls-1,.cls-4{fill:none}.cls-2{clip-path:url(#clip-path)}.cls-3{fill:#84bc3c}.cls-4{stroke:#fff;stroke-linejoin:round;stroke-width:3px}</style><clipPath id="clip-path"><path class="cls-1" d="M0 0h160v160H0z"/></clipPath></defs><title>Our Solutions_SBL</title><g class="cls-2"><path class="cls-3" d="M80 160A80 80 0 1 0 0 80a80 80 0 0 0 80 80"/><path class="cls-4" d="M88.84 40.33v61.2m0 14.4h32.4m-32.4-7.2h32.4m0-7.2h-32.4v21.6h32.4zM114 79.93a7.2 7.2 0 0 0-7.2-7.2h-3.6a7.2 7.2 0 0 0-7.2 7.2v21.6h18zm-32.4 10.8a7.2 7.2 0 0 0-14.4 0v18h14.4zm-21.6 0a7.2 7.2 0 0 0-14.4 0v18H60zm21.6-36a7.2 7.2 0 0 0-14.4 0v18h14.4zm-21.6 0a7.2 7.2 0 0 0-14.4 0v18H60zm28.8 68.4H38.44v-82.8h82.8v61.2"/></g></svg>