<svg id="Layer_1" data-name="Layer 1" xmlns="http://www.w3.org/2000/svg" xmlns:xlink="http://www.w3.org/1999/xlink" viewBox="0 0 160 160"><defs><style>.cls-1,.cls-4{fill:none;}.cls-2{clip-path:url(#clip-path);}.cls-3{fill:#84bc3c;}.cls-4{stroke:#fff;stroke-linecap:round;stroke-linejoin:round;stroke-width:3px;}</style><clipPath id="clip-path"><rect class="cls-1" width="160" height="160"/></clipPath></defs><title>Our Solutions_TAH</title><g class="cls-2"><path class="cls-3" d="M80,160A80,80,0,1,0,0,80a80,80,0,0,0,80,80"/></g><path class="cls-4" d="M104.61,112.94h-8v-8h8Zm-36,0h-8v-8h8Zm36-16h-8v-8h8Zm-16,0h-12v-8h12Zm-20,0h-8v-8h8Zm36-16h-8v-8h8Zm-16,0h-12v-8h12Zm-20,0h-8v-8h8Zm36-16h-8v-8h8Zm-16,0h-12v-8h12Zm-20,0h-8v-8h8Zm20,60h-12v-20h12Zm28-80-34-12-34,12v4h68Zm-4,80h-60v-76h60Zm-76,0h92"/></svg>