<svg id="Layer_1" data-name="Layer 1" xmlns="http://www.w3.org/2000/svg" xmlns:xlink="http://www.w3.org/1999/xlink" viewBox="0 0 160 160"><defs><style>.cls-1,.cls-4{fill:none;}.cls-2{clip-path:url(#clip-path);}.cls-3{fill:#84bc3c;}.cls-4{stroke:#fff;stroke-linecap:round;stroke-linejoin:round;stroke-width:3px;}</style><clipPath id="clip-path"><rect class="cls-1" width="160" height="160"/></clipPath></defs><title>Our Solutions_Conventional</title><g class="cls-2"><path class="cls-3" d="M80,160A80,80,0,1,0,0,80a80,80,0,0,0,80,80"/></g><path class="cls-4" d="M105.84,34h-52l-8,8h68Zm-40,28h-12V50h12Zm40,0h-12V50h12Zm-20,0h-12V50h12Zm-20,20h-12V70h12Zm40,0h-12V70h12Zm-20,0h-12V70h12Zm-20,20h-12V90h12Zm40,0h-12V90h12Zm-20,0h-12V90h12Zm0,24h-12V110h12Zm28,0h-68V42h68Z"/></svg>