<svg id="Layer_1" data-name="Layer 1" xmlns="http://www.w3.org/2000/svg" xmlns:xlink="http://www.w3.org/1999/xlink" viewBox="0 0 160 160"><defs><style>.cls-1,.cls-4,.cls-5,.cls-7{fill:none;}.cls-2{clip-path:url(#clip-path);}.cls-3{fill:#84bc3c;}.cls-4,.cls-5,.cls-7{stroke:#fff;stroke-width:3px;}.cls-4{stroke-linecap:round;}.cls-4,.cls-5{stroke-linejoin:round;}.cls-6{fill:#fff;}.cls-7{stroke-miterlimit:10;}</style><clipPath id="clip-path"><rect class="cls-1" width="160" height="160"/></clipPath></defs><title>Our Solutions_Seniors</title><g class="cls-2"><path class="cls-3" d="M80,160A80,80,0,1,0,0,80a80,80,0,0,0,80,80"/><path class="cls-4" d="M125,123s-2-15.92-10-21.92-26,0-26-14V77c2,6,14,10.08,22,.08-12,0,0-60-32-40-32-20-20,40-32,40,8,10,20,5.92,22-.08V87.08c0,14-18,8-26,14S33,123,33,123Z"/></g><path class="cls-5" d="M53.54,97.86,71,123m33.46-25.14L87,123"/><g class="cls-2"><path class="cls-6" d="M71,97.08a2,2,0,1,0,2,2,2,2,0,0,0-2-2"/><circle class="cls-7" cx="71" cy="99.08" r="2"/><path class="cls-6" d="M79,99.08a2,2,0,1,0,2,2,2,2,0,0,0-2-2"/><circle class="cls-7" cx="79" cy="101.08" r="2"/><path class="cls-6" d="M87,97.08a2,2,0,1,0,2,2,2,2,0,0,0-2-2"/><circle class="cls-7" cx="87" cy="99.08" r="2"/><path class="cls-4" d="M91,55.08c0,2,2,8,6,8M89,77s6-2.15,4-16.38M67,55.08c0,2-2,8-6,8M69,77s-6-2.15-4-16.38"/></g></svg>