<svg xmlns="http://www.w3.org/2000/svg" viewBox="0 0 17.85 12.95"><path fill="#fff" d="M16 12.95H1.84A1.84 1.84 0 0 1 0 11.11V1.84A1.84 1.84 0 0 1 1.84 0H16a1.84 1.84 0 0 1 1.84 1.84v9.27A1.84 1.84 0 0 1 16 12.95zM1.84 1.56a.28.28 0 0 0-.28.28v9.27a.28.28 0 0 0 .28.28H16a.28.28 0 0 0 .28-.28V1.84a.28.28 0 0 0-.28-.28H1.84z"/><path fill="#fff" d="M16 12.56H1.84a1.46 1.46 0 0 1-1.35-.94.39.39 0 0 1 .11-.43l5.52-4.93a.39.39 0 0 1 .52.58l-5.29 4.72a.67.67 0 0 0 .49.22H16a.67.67 0 0 0 .49-.22l-5.35-4.77a.39.39 0 0 1 .52-.58l5.59 5a.39.39 0 0 1 .11.43 1.45 1.45 0 0 1-1.35.94z"/><path d="M8.92 9.05A.39.39 0 0 1 8.66 9L.59 1.76a.39.39 0 0 1-.1-.43A1.46 1.46 0 0 1 1.84.39H16a1.45 1.45 0 0 1 1.35.94.39.39 0 0 1-.11.43L9.18 9a.38.38 0 0 1-.26.1zM1.35 1.39l7.57 6.75 7.58-6.75a.67.67 0 0 0-.5-.22H1.84a.66.66 0 0 0-.49.22z"/></svg>